<svg xmlns="http://www.w3.org/2000/svg" viewBox="0 0 14.13 17.15"><defs><style>.cls-1{fill:#71b2e1;}</style></defs><title>Ресурс 2</title><g id="Слой_2" data-name="Слой 2"><g id="Layer_1" data-name="Layer 1"><path d="M13.12,15.64a.51.51,0,0,1-.51.51H1.51a.5.5,0,0,1-.5-.51V4.54a.5.5,0,0,1,.5-.5h11.1a.5.5,0,0,1,.51.5ZM7.06,1A2.76,2.76,0,0,1,9.79,3H4.34A2.75,2.75,0,0,1,7.06,1Zm5.55,2H10.79A3.74,3.74,0,0,0,7.06,0,3.72,3.72,0,0,0,3.34,3H1.51A1.51,1.51,0,0,0,0,4.54v11.1a1.51,1.51,0,0,0,1.51,1.51h11.1a1.51,1.51,0,0,0,1.52-1.51V4.54A1.51,1.51,0,0,0,12.61,3Z"/><path class="cls-1" d="M10.09,10.09a3.08,3.08,0,0,1-.23,1.16,2.83,2.83,0,0,1-.66,1,3,3,0,0,1-1,.66,3,3,0,0,1-3.3-.66,3,3,0,0,1-.65-1,3,3,0,0,1,0-2.32,3,3,0,0,1,.65-1,3.18,3.18,0,0,1,1-.66,3,3,0,0,1,2.31,0A3.13,3.13,0,0,1,9.2,8a2.83,2.83,0,0,1,.66,1A3.08,3.08,0,0,1,10.09,10.09Z"/></g></g></svg>