<?xml version="1.0" encoding="utf-8"?>
<!-- Generator: Adobe Illustrator 22.1.0, SVG Export Plug-In . SVG Version: 6.00 Build 0)  -->
<svg version="1.1" id="Layer_1" xmlns="http://www.w3.org/2000/svg" xmlns:xlink="http://www.w3.org/1999/xlink" x="0px" y="0px"
	 width="32px" height="32px" viewBox="0 0 32 32" style="enable-background:new 0 0 32 32;" xml:space="preserve">
<style type="text/css">
	.st0{fill:#D6D6D6;}
	.st1{fill:#FFD05B;}
	.st2{fill:#324A5E;}
	.st3{fill:#F9B54C;}
	.st4{fill:#FFFFFF;}
	.st5{fill:#84DBFF;}
	.st6{fill:#4CDBC4;}
	.st7{fill:#F1543F;}
	.st8{fill:#ACB3BA;}
</style>
<circle class="st0" cx="16" cy="16" r="16"/>
<path class="st1" d="M24.6,22.8H7.4c-0.7,0-1.3-0.6-1.3-1.3v-11c0-0.7,0.6-1.3,1.3-1.3h17.3c0.7,0,1.3,0.6,1.3,1.3v11
	C26,22.3,25.4,22.8,24.6,22.8z"/>
<g>
	<rect x="6.1" y="11.4" class="st2" width="19.9" height="3"/>
	<rect x="8.2" y="16.4" class="st2" width="5.7" height="1.1"/>
</g>
<rect x="20.1" y="17.3" class="st1" width="4.2" height="4.2"/>
<g>
	<polygon class="st3" points="22.4,17.7 22.4,18.9 21.4,18.9 21.4,17.3 21.1,17.3 21.1,19.4 20.1,19.4 20.1,19.6 21.4,19.6 
		21.4,19.1 22.6,19.1 22.6,17.9 24.3,17.9 24.3,17.7 	"/>
	<polygon class="st3" points="23,20 22,20 22,19.5 21.7,19.5 21.7,20.5 20.1,20.5 20.1,20.7 22,20.7 22,20.3 22.9,20.3 22.9,21.4 
		23.1,21.4 23.1,20.3 24.3,20.3 24.3,20 23.1,20 	"/>
</g>
<polygon class="st2" points="24.6,15.3 24.6,16.7 25.6,16 "/>
<g>
	<rect x="7.4" y="20.7" class="st4" width="1.6" height="0.8"/>
	<rect x="7.4" y="18.7" class="st4" width="4.7" height="0.9"/>
	<rect x="10.4" y="20.7" class="st4" width="1.6" height="0.8"/>
</g>
<g>
	<rect x="13.4" y="20.9" class="st5" width="1.6" height="0.5"/>
	<rect x="16.5" y="20.9" class="st5" width="1.6" height="0.5"/>
</g>
<path class="st6" d="M17.3,26.9L5.1,14.7c-0.5-0.5-0.5-1.4,0-1.9l7.8-7.8c0.5-0.5,1.4-0.5,1.9,0l12.2,12.2c0.5,0.5,0.5,1.4,0,1.9
	l-7.8,7.8C18.6,27.5,17.8,27.5,17.3,26.9z"/>
<rect x="16.7" y="3.8" transform="matrix(0.7071 -0.7071 0.7071 0.7071 -4.4151 16.9104)" class="st2" width="3" height="19.9"/>
<rect x="11" y="9.6" transform="matrix(0.7071 -0.7071 0.7071 0.7071 -5.7101 11.9308)" class="st7" width="1.1" height="6.5"/>
<rect x="16" y="20.7" transform="matrix(0.7071 -0.7071 0.7071 0.7071 -10.8148 19.43)" class="st4" width="4.2" height="4.2"/>
<g>
	<polygon class="st8" points="19.3,21.7 18.5,22.5 17.8,21.8 18.9,20.6 18.7,20.5 17.2,22 16.5,21.3 16.4,21.5 17.2,22.4 17.6,22 
		18.5,22.9 19.3,22 20.5,23.2 20.7,23 	"/>
	<polygon class="st8" points="18.1,23.8 17.4,23.1 17.7,22.7 17.5,22.5 16.9,23.2 15.8,22.1 15.6,22.3 16.9,23.6 17.2,23.3 
		17.8,23.9 17,24.7 17.2,24.9 18,24 18.9,24.9 19,24.7 18.2,23.9 	"/>
</g>
<polygon class="st4" points="22.6,21.5 21.5,22.6 22.8,22.8 "/>
<g>
	<rect x="6.5" y="13.2" transform="matrix(0.7071 -0.7071 0.7071 0.7071 -7.8952 9.0194)" class="st2" width="0.8" height="1.6"/>
	<rect x="8.9" y="11.5" transform="matrix(0.7071 -0.7071 0.7071 0.7071 -7.0533 10.6264)" class="st2" width="0.7" height="4.7"/>
	<rect x="8.7" y="15.4" transform="matrix(0.7071 -0.7071 0.7071 0.7071 -8.7782 11.172)" class="st2" width="0.8" height="1.6"/>
	<rect x="10.8" y="17.5" transform="matrix(0.7071 -0.7071 0.7071 0.7071 -9.6515 13.3046)" class="st2" width="0.8" height="1.6"/>
	<rect x="13" y="19.6" transform="matrix(0.7071 -0.7071 0.7071 0.7071 -10.5572 15.435)" class="st2" width="0.8" height="1.6"/>
</g>
</svg>
