<?xml version="1.0" encoding="utf-8"?>
<!-- Generator: Adobe Illustrator 22.1.0, SVG Export Plug-In . SVG Version: 6.00 Build 0)  -->
<svg version="1.1" id="Layer_1" xmlns="http://www.w3.org/2000/svg" xmlns:xlink="http://www.w3.org/1999/xlink" x="0px" y="0px"
	 width="18px" height="24px" viewBox="0 0 18 24" style="enable-background:new 0 0 18 24;" xml:space="preserve">
<style type="text/css">
	.st0{fill:#D6D6D6;}
</style>
<g>
	<g>
		<g>
			<path class="st0" d="M9,11.7c2.6,0,4.8-2.6,4.8-5.9C13.8,2.6,13.1,0,9,0C4.9,0,4.2,2.6,4.2,5.9C4.2,9.1,6.4,11.7,9,11.7L9,11.7z
				 M9,11.7"/>
			<path class="st0" d="M0,20.7C0,20.5,0,20.6,0,20.7L0,20.7z M0,20.7"/>
		</g>
		<path class="st0" d="M18,20.5c-0.1-5.6-0.8-7.3-6.4-8.3c0,0-0.8,1-2.6,1c-1.8,0-2.6-1-2.6-1c-5.5,1-6.3,2.6-6.4,8.1
			c0,0.4,0,0.5,0,0.4c0,0.1,0,0.3,0,0.6c0,0,1.3,2.7,9,2.7c7.7,0,9-2.7,9-2.7c0-0.2,0-0.3,0-0.4C18,20.9,18,20.8,18,20.5L18,20.5z
			 M18,20.5"/>
	</g>
</g>
</svg>
