<?xml version="1.0" encoding="utf-8"?>
<!-- Generator: Adobe Illustrator 22.1.0, SVG Export Plug-In . SVG Version: 6.00 Build 0)  -->
<svg version="1.1" id="Layer_1" xmlns="http://www.w3.org/2000/svg" xmlns:xlink="http://www.w3.org/1999/xlink" x="0px" y="0px"
	 width="22px" height="21px" viewBox="0 0 22 21" style="enable-background:new 0 0 22 21;" xml:space="preserve">
<style type="text/css">
	.st0{fill:#D6D6D6;}
</style>
<g>
	<g>
		<path class="st0" d="M5.1,4l8.8-2.4l-0.5-0.9c-0.3-0.6-1-0.9-1.7-0.6L3.9,4H5.1z M5.1,4"/>
		<path class="st0" d="M16.6,1.7c-0.1,0-0.2,0-0.3,0l-2.1,0.6L8,4h10.3l-0.4-1.4C17.7,2,17.2,1.7,16.6,1.7L16.6,1.7z M16.6,1.7"/>
		<path class="st0" d="M19.5,4.9H1.2c-0.4,0-0.7,0.2-1,0.5C0.2,5.4,0.1,5.6,0,5.8C0,5.9,0,6,0,6.1v13.7C0,20.4,0.6,21,1.2,21h18.3
			c0.7,0,1.2-0.6,1.2-1.2v-3.4h-7.3c-1.2,0-2.1-0.9-2.1-2.1v-2.7c0-0.6,0.2-1.1,0.6-1.5c0.3-0.3,0.8-0.6,1.3-0.6c0.1,0,0.2,0,0.2,0
			h7.3V6.1C20.7,5.4,20.2,4.9,19.5,4.9L19.5,4.9z M19.5,4.9"/>
	</g>
	<path class="st0" d="M21.6,10.6c-0.1-0.1-0.3-0.2-0.4-0.3c-0.1,0-0.3-0.1-0.4-0.1h-7.4c-0.7,0-1.2,0.6-1.2,1.2v2.7
		c0,0.7,0.6,1.2,1.2,1.2h7.4c0.1,0,0.3,0,0.4-0.1c0.2-0.1,0.3-0.1,0.4-0.3c0.2-0.2,0.4-0.5,0.4-0.9v-2.7
		C22,11.2,21.8,10.8,21.6,10.6L21.6,10.6z M16,13.1c0,0.3-0.3,0.6-0.6,0.6H15c-0.3,0-0.6-0.3-0.6-0.6v-0.4c0-0.2,0.1-0.4,0.2-0.5
		c0.1-0.1,0.2-0.1,0.4-0.1h0.4c0.3,0,0.6,0.3,0.6,0.6V13.1z M16,13.1"/>
</g>
</svg>
