<?xml version="1.0" encoding="utf-8"?>
<!-- Generator: Adobe Illustrator 22.1.0, SVG Export Plug-In . SVG Version: 6.00 Build 0)  -->
<svg version="1.1" id="Layer_1" xmlns="http://www.w3.org/2000/svg" xmlns:xlink="http://www.w3.org/1999/xlink" x="0px" y="0px"
	 width="21px" height="17px" viewBox="0 0 21 17" style="enable-background:new 0 0 21 17;" xml:space="preserve">
<style type="text/css">
	.st0{fill:#D6D6D6;}
</style>
<g>
	<path class="st0" d="M2,5.2C2.3,5.4,3.1,6,4.4,7c1.3,1,2.4,1.7,3.1,2.2C7.6,9.2,7.7,9.3,8,9.5C8.2,9.7,8.5,9.9,8.6,10
		c0.2,0.1,0.4,0.2,0.6,0.4c0.2,0.1,0.5,0.3,0.7,0.3c0.2,0.1,0.4,0.1,0.6,0.1h0c0.2,0,0.4,0,0.6-0.1c0.2-0.1,0.4-0.2,0.7-0.3
		c0.2-0.1,0.4-0.3,0.6-0.4c0.2-0.1,0.4-0.3,0.6-0.5c0.3-0.2,0.4-0.3,0.5-0.4c0.7-0.5,2.5-1.8,5.5-3.9c0.6-0.4,1-0.9,1.4-1.5
		C20.8,3.2,21,2.6,21,1.9c0-0.5-0.2-1-0.6-1.4C20.1,0.2,19.6,0,19.1,0H1.9C1.3,0,0.8,0.2,0.5,0.6C0.2,1,0,1.6,0,2.2
		c0,0.5,0.2,1.1,0.6,1.6C1.1,4.4,1.5,4.9,2,5.2L2,5.2z M2,5.2"/>
	<path class="st0" d="M19.8,6.5c-2.6,1.8-4.5,3.2-5.8,4.2c-0.4,0.3-0.8,0.6-1.1,0.8c-0.3,0.2-0.6,0.4-1.1,0.6
		c-0.5,0.2-0.9,0.3-1.3,0.3h0c-0.4,0-0.8-0.1-1.3-0.3c-0.5-0.2-0.8-0.4-1.1-0.6C7.8,11.3,7.5,11,7,10.7C6,9.9,4,8.5,1.2,6.5
		C0.7,6.2,0.3,5.9,0,5.5v9.6c0,0.5,0.2,1,0.6,1.4C0.9,16.8,1.4,17,1.9,17h17.2c0.5,0,1-0.2,1.3-0.6c0.4-0.4,0.6-0.8,0.6-1.4V5.5
		C20.7,5.9,20.3,6.2,19.8,6.5L19.8,6.5z M19.8,6.5"/>
</g>
</svg>
