<?xml version="1.0" encoding="utf-8"?>
<!-- Generator: Adobe Illustrator 22.1.0, SVG Export Plug-In . SVG Version: 6.00 Build 0)  -->
<svg version="1.1" id="Layer_1" xmlns="http://www.w3.org/2000/svg" xmlns:xlink="http://www.w3.org/1999/xlink" x="0px" y="0px"
	 width="23px" height="24px" viewBox="0 0 23 24" style="enable-background:new 0 0 23 24;" xml:space="preserve">
<style type="text/css">
	.st0{fill:#D6D6D6;}
</style>
<g>
	<g>
		<path class="st0" d="M22.4,3.9c-0.3-0.3-0.8-0.5-1.2-0.5h-1.8V2.1c0-0.6-0.2-1.1-0.6-1.5c-0.4-0.4-1-0.6-1.6-0.6h-0.9
			c-0.6,0-1.1,0.2-1.6,0.6c-0.4,0.4-0.6,0.9-0.6,1.5v1.3H8.8V2.1c0-0.6-0.2-1.1-0.6-1.5C7.7,0.2,7.2,0,6.6,0H5.7
			C5.1,0,4.6,0.2,4.2,0.6C3.7,1,3.5,1.6,3.5,2.1v1.3H1.8c-0.5,0-0.9,0.2-1.2,0.5C0.2,4.3,0,4.7,0,5.1v17.1c0,0.5,0.2,0.9,0.5,1.2
			C0.9,23.8,1.3,24,1.8,24h19.4c0.5,0,0.9-0.2,1.2-0.5c0.3-0.3,0.5-0.7,0.5-1.2V5.1C23,4.7,22.8,4.3,22.4,3.9L22.4,3.9z M5.7,22.3
			h-4v-3.9h4V22.3z M5.7,17.5h-4v-4.3h4V17.5z M5.7,12.4h-4V8.6h4V12.4z M5.4,6.3C5.3,6.2,5.3,6.1,5.3,6V2.1c0-0.1,0-0.2,0.1-0.3
			c0.1-0.1,0.2-0.1,0.3-0.1h0.9c0.1,0,0.2,0,0.3,0.1C7,1.9,7.1,2,7.1,2.1V6c0,0.1,0,0.2-0.1,0.3C6.8,6.4,6.7,6.4,6.6,6.4H5.7
			C5.6,6.4,5.5,6.4,5.4,6.3L5.4,6.3z M11,22.3H6.6v-3.9H11V22.3z M11,17.5H6.6v-4.3H11V17.5z M11,12.4H6.6V8.6H11V12.4z M16.3,22.3
			h-4.4v-3.9h4.4V22.3z M16.3,17.5h-4.4v-4.3h4.4V17.5z M16.3,12.4h-4.4V8.6h4.4V12.4z M16,6.3c-0.1-0.1-0.1-0.2-0.1-0.3V2.1
			c0-0.1,0-0.2,0.1-0.3c0.1-0.1,0.2-0.1,0.3-0.1h0.9c0.1,0,0.2,0,0.3,0.1c0.1,0.1,0.1,0.2,0.1,0.3V6c0,0.1,0,0.2-0.1,0.3
			c-0.1,0.1-0.2,0.1-0.3,0.1h-0.9C16.2,6.4,16.1,6.4,16,6.3L16,6.3z M21.2,22.3h-4v-3.9h4V22.3z M21.2,17.5h-4v-4.3h4V17.5z
			 M21.2,12.4h-4V8.6h4V12.4z M21.2,12.4"/>
	</g>
</g>
</svg>
