<?xml version="1.0" encoding="utf-8"?>
<!-- Generator: Adobe Illustrator 22.1.0, SVG Export Plug-In . SVG Version: 6.00 Build 0)  -->
<svg version="1.1" id="Layer_1" xmlns="http://www.w3.org/2000/svg" xmlns:xlink="http://www.w3.org/1999/xlink" x="0px" y="0px"
	 width="27px" height="21px" viewBox="0 0 27 21" style="enable-background:new 0 0 27 21;" xml:space="preserve">
<style type="text/css">
	.st0{fill:#D6D6D6;}
</style>
<g>
	<path class="st0" d="M26.3,0.6c-0.4-0.4-1-0.6-1.6-0.6H2.2C1.6,0,1.1,0.2,0.7,0.6C0.2,1.1,0,1.6,0,2.2v16.6c0,0.6,0.2,1.1,0.7,1.5
		c0.4,0.4,1,0.6,1.6,0.6h22.5c0.6,0,1.1-0.2,1.6-0.6c0.4-0.4,0.7-0.9,0.7-1.5V2.2C27,1.6,26.7,1.1,26.3,0.6L26.3,0.6z M25.2,18.8
		c0,0.1,0,0.2-0.1,0.3c-0.1,0.1-0.2,0.1-0.3,0.1H2.2c-0.1,0-0.2,0-0.3-0.1c-0.1-0.1-0.1-0.2-0.1-0.3v-8.3h23.4V18.8z M25.2,5.2H1.8
		V2.2c0-0.1,0-0.2,0.1-0.3C2,1.8,2.1,1.7,2.2,1.7h22.5c0.1,0,0.2,0,0.3,0.1c0.1,0.1,0.1,0.2,0.1,0.3V5.2z M25.2,5.2"/>
	<rect x="3.6" y="15.7" class="st0" width="3.6" height="1.7"/>
	<rect x="9" y="15.7" class="st0" width="5.4" height="1.7"/>
</g>
</svg>
