<?xml version="1.0" encoding="utf-8"?>
<!-- Generator: Adobe Illustrator 22.1.0, SVG Export Plug-In . SVG Version: 6.00 Build 0)  -->
<svg version="1.1" id="Layer_1" xmlns="http://www.w3.org/2000/svg" xmlns:xlink="http://www.w3.org/1999/xlink" x="0px" y="0px"
	 width="20px" height="26px" viewBox="0 0 20 26" style="enable-background:new 0 0 20 26;" xml:space="preserve">
<style type="text/css">
	.st0{fill:#D6D6D6;}
</style>
<g>
	<path class="st0" d="M2.2,7.8v2.7H2.1c-1.1,0-2.1,0.9-2.1,2.1v11.4C0,25.1,0.9,26,2.1,26h15.8c1.1,0,2.1-0.9,2.1-2.1V12.6
		c0-1.1-0.9-2.1-2.1-2.1h-0.1V7.8C17.9,3.5,14.3,0,10,0C5.7,0,2.2,3.5,2.2,7.8L2.2,7.8z M11.2,18.8C11,18.9,11,19,11,19.2
		c0,0.8,0,1.7,0,2.5c0,0.3-0.2,0.7-0.5,0.8c-0.7,0.4-1.5-0.1-1.5-0.8v0c0-0.8,0-1.7,0-2.5c0-0.2,0-0.3-0.2-0.4
		c-0.8-0.6-1-1.5-0.6-2.3c0.4-0.8,1.3-1.3,2.1-1.1c0.9,0.2,1.6,0.9,1.6,1.9C12,17.9,11.7,18.4,11.2,18.8L11.2,18.8z M5.7,7.8
		c0-2.4,2-4.4,4.4-4.4c2.4,0,4.4,2,4.4,4.4v2.7H5.7V7.8z M5.7,7.8"/>
</g>
</svg>
