<svg xmlns="http://www.w3.org/2000/svg" viewBox="0 0 15.49 14.79"><defs><style>.cls-1{fill:none;stroke:#000;stroke-miterlimit:10;stroke-width:1.55px;}</style></defs><title>Ресурс 1</title><g id="Слой_2" data-name="Слой 2"><g id="Layer_1" data-name="Layer 1"><circle class="cls-1" cx="6.82" cy="6.82" r="6.05"/><path d="M15.32,14.7a1.69,1.69,0,0,1-1.67-.29,13.4,13.4,0,0,1-1.09-.87c-.36-.3-.65-.66-1-1a3.91,3.91,0,0,1-.45-.54,5,5,0,0,1-.4-.58L12.18,10a4.82,4.82,0,0,1,.57.4,3.92,3.92,0,0,1,.53.45c.32.34.68.63,1,1s.59.72.87,1.1a1.71,1.71,0,0,1,.28,1.68Z"/></g></g></svg>