<?xml version="1.0" encoding="utf-8"?><svg xmlns="http://www.w3.org/2000/svg" xmlns:xlink="http://www.w3.org/1999/xlink"><symbol viewBox="0 0 40 40" id="dummy" xmlns="http://www.w3.org/2000/svg"><defs><style>.acls-1{fill:#9600ff;fill-rule:evenodd}</style></defs><path class="acls-1" d="M33.393 26.694L40 33.33l-6.663 6.693-6.666-6.693 6.572-6.6-6.576-6.6-6.575 6.6 6.571 6.6L20 40.022l-6.662-6.692 6.572-6.6-6.576-6.6-6.575 6.6 6.57 6.6-6.662 6.692L0 33.33l6.605-6.636L0 20l6.605-6.694L0 6.672 6.667-.022l6.662 6.694-6.6 6.634 5.623 5.7.981.994.985-.99 5.624-5.7-6.604-6.638L20-.022l6.662 6.694-6.6 6.634 5.782 5.862.823.832.821-.825 5.788-5.866-6.605-6.637 6.664-6.694L40 6.672l-6.6 6.634L40 20z"/></symbol></svg>